# xmcd CD database file
#
# Track frame offsets:
#	150
#	25205
#	45435
#	65422
#	85322
#	118115
#	150200
#	186410
#	212115
#	234107
#
# Disc length: 3509 seconds
#
# Revision: 0
# Processed by: cddbd v1.5.2PL0 Copyright (c) Steve Scherf et al.
# Submitted via: CDex 1.70beta3
#
DISCID=790db30a
DTITLE=様々なアーティスト - ジャズ･スタンダード　ベスト[DISC 1]
DYEAR=1900
DGENRE=Jazz
TTITLE0=枯葉
TTITLE1=ジョードゥ
TTITLE2=カーニバルの朝
TTITLE3=イン・ア・センチメンタル・ムード
TTITLE4=イン・ユア・オウン・スィート・ウェイ
TTITLE5=あなたと夜と音楽と
TTITLE6=ホワッツ・ニュー
TTITLE7=ブルー・ボッサ
TTITLE8=セント・トーマス
TTITLE9=ワルツ・フォー・デビー
EXTD=
EXTT0=
EXTT1=
EXTT2=
EXTT3=
EXTT4=
EXTT5=
EXTT6=
EXTT7=
EXTT8=
EXTT9=
PLAYORDER=
